<svg width="20" height="20" viewBox="0 0 100 100" xmlns="http://www.w3.org/2000/svg">
    <path d="M44.557.264C34.06 1.62 24.833 5.698 17.494 12.227c-.617.548-1.315 1.16-1.55 1.36-.236.2-1.187 1.183-2.113 2.184-22.663 24.51-15.62 63.666 14.13 78.55 33.438 16.73 72.68-8.002 72.01-45.383-.073-4.037-.154-4.939-.75-8.373C95.222 17.508 74.762.371 50.838.04c-3.392-.047-4.491-.007-6.28.224m11.07 2.177c29.99 3.672 48.95 32.893 40.044 61.715-4.477 14.49-16.477 26.477-31.078 31.045-23.293 7.289-48.16-4.044-58.046-26.45-6.557-14.863-4.527-34.345 4.85-46.577.064-.082.498-.654.965-1.27C22.385 7.677 39.332.445 55.626 2.44m-7.78 2.406C18.794 6.505-1.166 34.893 7.189 62.674c8.634 28.709 42.41 41.097 67.573 24.783 1.18-.764 1.802-1.207 3.136-2.234 2.838-2.182 6.025-5.405 8.083-8.175.367-.493.708-.93.757-.971.307-.255 2.883-4.451 3.565-5.81C105.209 40.6 84.439 5.713 51.36 4.857c-1.398-.035-2.98-.04-3.514-.01m6.354 4.1c34.367 3.242 49.484 45.544 24.977 69.896C56.752 101.127 19.355 90.98 10.57 60.227c-1.288-4.507-1.696-12.58-.854-16.876l.38-1.963C13.956 21.285 33.398 6.985 54.2 8.948m-7.1 4.472c-1.524.141-3.796.524-5.522.93-3.334.785-3.354 1.043-.296 3.803 3.138 2.832 5.951 6.01 7.987 9.023 1.302 1.926 1.309 1.95.523 1.95-1.279 0-2.417-.638-4.444-2.493-3.839-3.511-10.192-7.995-12.181-8.595-1.115-.337-5.107 2.356-8.48 5.72-2.487 2.48-2.71 2.963-1.621 3.515 3.592 1.822 12.969 8.574 12.969 9.34 0 .902-2.155.545-5.01-.829-5.767-2.777-11.27-4.536-12.361-3.951-.724.387-2.96 5.748-3.768 9.031-1.083 4.398-1.007 4.601 1.932 5.172 11.761 2.286 18.792 8.328 20.775 17.854.441 2.118.287 2.923-.64 3.354-.768.357-.998.278-5.905-2.029l-2.658-1.25H17.022l-.437.437c-.834.835-.752 1.031 1.756 4.158a74.071 74.071 0 0 1 3.451 4.741c1.991 3.04 1.568 2.776 4.446 2.776 2.739 0 2.281.144 5.46-1.728l2.02-1.188 17.426-.04c20.28-.045 18.085-.256 18.085 1.742 0 1.969.529 2.067 4.41.822 3.156-1.013 7.784-4.006 8.092-5.233.429-1.707-7.02-6.003-11.157-6.435-1.114-.116-1.296.099-1.37 1.617-.071 1.492-.296 1.77-1.426 1.77-.653 0-.875-.068-1.167-.36-.723-.724-.72-.761.43-5.271 4.293-16.82 2.224-30.654-6.185-41.374-1.342-1.709-5.99-6.374-6.73-6.753-.6-.307-4.716-.44-7.026-.226m11.662 40.996c2.866 1.325 3.602 4.898 1.485 7.214-2.865 3.136-7.914 1.18-7.914-3.064 0-3.384 3.374-5.562 6.43-4.15" fill-rule="evenodd"/>
</svg>
