<?xml version="1.0" encoding="UTF-8" ?>
<!DOCTYPE svg PUBLIC "-//W3C//DTD SVG 1.1//EN" "http://www.w3.org/Graphics/SVG/1.1/DTD/svg11.dtd">
<svg width="313pt" height="206pt" viewBox="0 0 313 206" version="1.1" xmlns="http://www.w3.org/2000/svg">
<g id="#ffffffff">
</g>
<g id="#000000ff">
<path fill="#000000" opacity="1.00" d=" M 64.87 0.95 C 94.77 11.35 124.51 22.23 154.48 32.42 C 155.54 32.83 156.59 32.83 157.65 32.42 C 187.57 22.18 217.29 11.39 247.14 0.95 C 236.55 17.83 225.86 34.65 215.04 51.38 C 210.04 49.23 204.89 47.44 199.85 45.38 C 202.77 40.24 205.91 35.22 208.87 30.10 C 199.23 34.95 189.42 39.46 179.85 44.45 C 186.54 47.00 193.24 49.50 199.88 52.19 C 203.58 53.70 207.55 56.61 207.80 60.95 C 208.39 65.77 205.10 69.71 202.77 73.57 C 188.35 96.13 174.01 118.75 159.52 141.27 C 159.60 135.33 158.92 129.33 159.62 123.43 C 165.32 105.34 170.95 87.23 176.14 68.99 C 177.16 66.28 174.13 64.83 172.18 63.88 C 166.68 61.45 161.53 58.23 155.90 56.15 C 150.19 58.62 144.71 61.61 139.11 64.32 C 137.38 65.12 134.94 66.70 135.93 68.96 C 141.08 87.21 146.77 105.31 152.43 123.41 C 153.06 129.32 152.46 135.32 152.49 141.27 C 138.23 118.95 124.00 96.60 109.76 74.27 C 107.28 70.16 103.68 65.96 104.30 60.83 C 104.63 56.52 108.58 53.66 112.28 52.16 C 118.86 49.48 125.54 47.03 132.17 44.44 C 122.62 39.47 112.85 34.92 103.22 30.11 C 106.17 35.23 109.31 40.24 112.22 45.39 C 107.15 47.41 102.02 49.28 96.97 51.35 C 86.19 34.60 75.52 17.77 64.87 0.95 Z" />
<path fill="#000000" opacity="1.00" d=" M 128.23 205.19 C 128.33 195.33 128.16 185.48 128.32 175.62 C 144.54 175.73 160.77 175.59 176.99 175.68 C 180.16 175.57 183.86 177.16 184.49 180.58 C 184.88 183.93 184.79 187.33 184.55 190.68 C 184.35 194.38 180.47 196.62 177.05 196.38 C 163.82 196.41 150.59 196.36 137.35 196.39 C 137.36 199.35 137.37 202.30 137.41 205.26 C 134.35 205.34 131.29 205.30 128.23 205.19 M 137.32 182.31 C 137.36 184.61 137.38 186.91 137.43 189.22 C 149.99 189.10 162.55 189.33 175.11 189.11 C 177.39 187.79 175.84 184.62 176.27 182.50 C 163.30 182.06 150.30 182.41 137.32 182.31 Z" />
</g>
<g id="#010101ff">
<path fill="#010101" opacity="1.00" d=" M 1.16 180.17 C 2.46 177.23 5.83 175.59 8.96 175.66 C 24.86 175.62 40.76 175.68 56.67 175.64 C 56.70 178.36 56.71 181.09 56.73 183.81 C 41.15 183.92 25.55 183.67 9.98 183.93 C 9.69 184.16 9.12 184.63 8.83 184.87 C 8.65 188.78 8.87 192.71 8.71 196.63 C 10.12 196.98 11.55 197.34 13.02 197.28 C 27.58 197.24 42.14 197.30 56.70 197.24 C 56.71 199.87 56.72 202.50 56.72 205.13 C 41.47 205.57 26.20 205.19 10.95 205.35 C 7.21 205.50 2.57 204.78 1.09 200.78 C 0.28 197.24 0.84 193.57 0.69 189.98 C 0.74 186.72 0.26 183.36 1.16 180.17 Z" />
<path fill="#010101" opacity="1.00" d=" M 64.31 198.01 C 64.28 190.55 64.26 183.09 64.35 175.64 C 67.61 175.65 70.88 175.63 74.15 175.69 C 74.26 182.84 74.03 190.00 74.29 197.15 C 86.39 197.39 98.50 197.25 110.60 197.23 C 111.10 190.05 110.72 182.85 110.83 175.67 C 114.13 175.65 117.43 175.66 120.73 175.62 C 120.80 183.07 120.82 190.53 120.75 197.99 C 120.79 201.99 117.00 205.33 113.09 205.26 C 101.73 205.60 90.36 205.15 78.99 205.35 C 75.71 205.34 72.37 205.54 69.16 204.73 C 66.44 203.71 64.16 201.02 64.31 198.01 Z" />
<path fill="#010101" opacity="1.00" d=" M 192.24 175.64 C 208.17 175.68 224.10 175.64 240.03 175.65 C 243.47 175.58 247.52 177.37 248.38 181.00 C 248.62 184.33 248.61 187.69 248.37 191.02 C 247.87 193.82 245.40 195.29 243.14 196.59 C 245.30 199.33 247.22 202.24 249.16 205.14 C 245.22 204.89 239.24 207.25 237.04 202.79 C 235.72 200.69 234.47 198.55 233.19 196.43 C 222.66 196.34 212.13 196.39 201.60 196.40 C 201.62 199.30 201.63 202.20 201.66 205.11 C 198.51 205.39 195.35 205.40 192.21 205.19 C 192.26 195.34 192.17 185.49 192.24 175.64 M 201.70 181.98 C 201.62 184.38 201.62 186.79 201.63 189.19 C 214.07 189.10 226.52 189.36 238.95 189.07 C 239.26 188.85 239.88 188.40 240.20 188.17 C 240.02 186.15 241.23 183.10 238.81 182.10 C 226.45 181.84 214.07 182.09 201.70 181.98 Z" />
<path fill="#010101" opacity="1.00" d=" M 256.18 182.99 C 256.05 178.48 260.76 175.34 264.94 175.65 C 280.72 175.64 296.50 175.68 312.28 175.63 C 312.33 185.48 312.45 195.34 312.16 205.19 C 309.42 205.31 306.65 205.57 303.92 205.23 C 302.68 202.64 303.73 199.26 303.43 196.39 C 290.75 196.38 278.07 196.39 265.39 196.38 C 265.37 199.34 265.39 202.31 265.41 205.28 C 262.34 205.36 259.28 205.32 256.22 205.19 C 256.31 197.79 256.03 190.39 256.18 182.99 M 265.43 182.40 C 265.39 184.67 265.40 186.94 265.44 189.22 C 278.08 189.15 290.73 189.20 303.38 189.19 C 303.40 186.90 303.41 184.62 303.44 182.33 C 290.77 182.33 278.10 182.20 265.43 182.40 Z" />
</g>
</svg>
